<?xml version="1.0" encoding="utf-8"?>
<!-- Generator: Adobe Illustrator 24.1.1, SVG Export Plug-In . SVG Version: 6.00 Build 0)  -->
<svg version="1.1" id="Layer_1" xmlns="http://www.w3.org/2000/svg" xmlns:xlink="http://www.w3.org/1999/xlink" x="0px" y="0px"
	 viewBox="0 0 512 512" style="enable-background:new 0 0 512 512;background-color:#2a9d8f" xml:space="preserve">
<style type="text/css">
	.st0{fill:#fb503b;}
</style>
<g>
	<path class="st0" d="M509.9,244.5c-3.4-3.8-50.3-62.5-58.5-72.4c-8.3-10-12.3-8.1-17.4-7.4c-5.1,0.7-64.4,10.7-71.3,11.9
		c-6.9,1.1-11.2,3.9-7,9.8c3.8,5.3,42.7,60.5,51.3,72.7l-155,37.1L128.9,90.1c-4.9-7.3-5.9-9.8-17.1-9.3
		c-11.2,0.5-96.7,7.6-102.8,8.1C3,89.5-3.7,92.2,2.4,106.5c6.1,14.4,103.2,223.7,105.9,229.8c2.7,6.1,9.8,16,26.2,12
		c16.9-4,75.4-19.3,107.4-27.7c16.9,30.6,51.4,92.7,57.8,101.6c8.5,11.9,14.4,9.9,27.4,6c10.2-3.1,159.7-56.8,166.4-59.6
		c6.8-2.8,10.9-4.8,6.3-11.5c-3.3-5-42.8-57.8-63.4-85.4c14.1-3.8,64.4-17.2,69.8-18.6C512.6,251.4,513.4,248.3,509.9,244.5
		L509.9,244.5z M228.2,302.1c-1.9,0.4-88.7,21.2-93.3,22.2c-4.6,1-4.6,0.5-5.2-1.1c-0.5-1.6-103.2-213.3-104.6-216s-1.4-4.8,0-4.8
		c1.3,0,82-7.2,84.8-7.4c2.9-0.1,2.6,0.5,3.6,2.3c0,0,113.7,196.3,115.7,199.7C231.2,300.6,230,301.7,228.2,302.1L228.2,302.1z
		 M472.9,348c1.4,2.2,2.8,3.5-1.6,5.1c-4.3,1.6-146.9,49.7-149.7,50.9c-2.8,1.2-5,1.6-8.5-3.6c-3.6-5.2-49.9-85.4-49.9-85.4
		l151.1-39.3c3.8-1.2,5-2,7.3,1.8C424,281.2,471.6,345.8,472.9,348L472.9,348z M482.6,240.7c-3.4,0.8-58.9,14.5-58.9,14.5
		l-45.4-62.3c-1.3-1.8-2.3-3.6,0.8-4c3.2-0.4,54.7-9.8,57.1-10.3c2.3-0.5,4.3-1.1,7.2,2.8c2.9,3.9,42.1,53.6,43.6,55.5
		C488.5,238.8,486,240,482.6,240.7L482.6,240.7z"/>
</g>
</svg>
