<?xml version="1.0" encoding="utf-8"?>
<!-- Generator: Adobe Illustrator 24.1.1, SVG Export Plug-In . SVG Version: 6.00 Build 0)  -->
<svg version="1.1" id="Layer_1" xmlns="http://www.w3.org/2000/svg" xmlns:xlink="http://www.w3.org/1999/xlink" x="0px" y="0px"
	 viewBox="0 0 512 512" style="enable-background:new 0 0 512 512;" xml:space="preserve">
<style type="text/css">
	.st0{fill:#40B3E0;}
	.st1{fill:#FFFFFF;}
	.st2{fill:#D2E5F1;}
	.st3{fill:#B5CFE4;}
</style>
<g>
	<circle class="st0" cx="256" cy="256" r="256"/>
	<path class="st1" d="M380.6,147.3l-45.7,230.5c0,0-6.4,16-24,8.3l-105.5-80.9L167,286.7l-64.6-21.7c0,0-9.9-3.5-10.9-11.2
		c-1-7.7,11.2-11.8,11.2-11.8l256.8-100.7C359.5,141.2,380.6,131.9,380.6,147.3"/>
	<path class="st2" d="M197.2,375.2c0,0-3.1-0.3-6.9-12.4c-3.8-12.2-23.3-76.1-23.3-76.1l155.1-98.5c0,0,9-5.4,8.6,0
		c0,0,1.6,1-3.2,5.4c-4.8,4.5-121.8,109.7-121.8,109.7"/>
	<path class="st3" d="M245.8,336.2l-41.7,38.1c0,0-3.3,2.5-6.8,0.9l8-70.7"/>
</g>
</svg>
